<?xml version="1.0" encoding="utf-8"?>
<!-- Generator: Adobe Illustrator 21.1.0, SVG Export Plug-In . SVG Version: 6.00 Build 0)  -->
<svg version="1.1" id="Layer_1" xmlns="http://www.w3.org/2000/svg" xmlns:xlink="http://www.w3.org/1999/xlink" x="0px" y="0px"
	 viewBox="0 0 3000 3000" style="enable-background:new 0 0 3000 3000;" xml:space="preserve">
<g transform="translate(0.000000,3000.000000) scale(0.100000,-0.100000)">
	<path d="M16145,24384c-109-25-373-146-555-254c-195-116-497-321-600-408c-212-178-375-410-443-627c-52-167-70-280-70-435
		c1-463,246-1125,693-1870c48-80,95-160,105-179c32-63,174-472,189-544c28-138,40-385,29-610c-5-114-12-210-16-213c-3-3-25,6-50,20
		c-51,30-72,33-63,10c4-11,2-15-6-11c-73,27-274,86-403,118c-250,60-462,91-762,109c-401,24-941-51-1395-193c-27-8-48-12-48-9
		c1,37,44,387,56,452c20,107,80,322,104,372c10,21,71,131,137,244c104,181,131,221,225,324c384,425,714,889,878,1233
		c164,346,211,545,190,803c-16,208-57,342-158,517c-107,185-236,328-484,533c-412,341-770,570-914,582c-95,8-163-46-172-139
		c-7-78,24-120,182-238c78-59,177-145,237-208c57-60,182-186,276-281c201-201,278-288,343-388c92-141,125-264,118-437
		c-5-118-23-176-103-345c-114-238-247-450-490-777c-201-271-281-370-410-505c-158-165-309-356-462-585c-180-270-314-574-439-992
		c-27-90-51-163-54-163c-12,0-198,198-277,296c-97,118-292,311-415,408c-185,147-477,347-700,480c-128,77-305,183-393,236
		c-203,123-339,196-487,259c-64,27-151,68-195,91c-79,41-269,110-303,110c-22,0-34-28-20-45c6-8,43-32,83-56c40-23,76-48,80-56
		c5-7,33-27,63-44c113-64,370-317,669-659c468-535,904-1045,1090-1275c170-211,305-375,377-456l58-67l-136-133
		c-310-304-576-662-749-1009c-15-30-29-56-30-58s-189-4-416-6c-573-5-886-31-1225-102c-422-88-662-222-757-422c-30-62-32-75-32-172
		c0-88,4-115,24-165c90-225,357-471,787-727c285-169,595-321,1024-502l215-91l7-40c4-22,19-109,33-193c117-679,407-1289,885-1864
		l31-37l-76-123c-228-366-292-592-315-1108c-15-339,4-539,100-1085c89-503,265-1252,415-1765c20-69,70-224,110-345s126-382,190-580
		c169-520,382-1083,555-1465c84-186,392-791,495-975c53-93,130-233,172-310s112-196,156-265s87-136,95-150c24-38,26-10,8,98
		c-22,126-55,236-122,399c-50,123-56,147-83,330c-42,283-89,495-297,1323c-171,683-212,842-344,1325c-27,99-60,241-74,315
		s-50,257-81,405c-31,149-70,338-86,420c-17,83-61,285-97,450l-67,300v475c0,586-4,556,161,1105c104,344,134,435,145,435
		c5,0,49-23,98-50c132-75,365-180,551-248c347-126,686-196,1073-222c81-5,166-13,188-16c46-8,241,6,515,36c195,22,462,73,616,119
		c96,28,118,27,118-5c0-7,11-48,24-91c213-695,221-750,213-1352l-5-366l-51-235c-64-301-230-1119-281-1385c-11-60-52-227-90-370
		c-162-612-433-1698-510-2045c-55-247-75-356-100-535c-25-180-23-175-93-350c-58-147-88-250-107-376c-16-99-11-127,14-79
		c11,19,50,83,88,143c38,59,101,167,140,240c39,72,118,217,176,321c114,206,439,859,522,1051c157,363,360,909,495,1330
		c42,132,123,384,180,560c193,599,289,962,444,1685c167,777,220,1201,201,1595c-18,359-54,577-125,756c-20,50-33,95-28,99
		c4,4,57,46,116,93c236,186,466,414,649,642c66,82,206,280,247,348c22,36,24,37,84,37c34,0,136-5,227-10c231-15,875-15,1120,0
		c493,29,911,108,1153,218c268,122,404,318,367,528c-25,149-91,257-254,419c-327,326-1059,724-1958,1065l-137,52l-5,51
		c-32,318-58,475-116,702c-71,275-149,487-273,739c-191,390-417,711-722,1024c-49,51-91,96-93,101c-6,18,651,654,1438,1391
		c500,468,688,614,973,752c71,35,87,47,87,65c0,29-13,29-133,3c-101-23-492-152-627-207c-73-30-281-125-570-260
		c-41-19-115-53-164-75c-106-46-250-125-476-258c-265-157-408-265-631-478c-57-54-142-131-189-170c-70-59-86-68-91-54
		c-4,9-17,96-29,192c-61,487-144,795-315,1167c-102,221-183,371-280,519c-123,188-297,523-455,879c-102,231-198,511-235,690
		c-29,143-14,325,38,455c71,174,186,302,502,555c77,62,190,156,250,209c111,98,176,144,350,249c105,64,143,108,152,175
		c7,52-25,125-64,145C16230,24381,16174,24390,16145,24384z M12702,18825c83-157,169-419,203-617c9-51,31-163,50-248
		c51-231,83-462,95-675c5-104,14-273,20-374c15-290,12-1110-5-1271c-16-157-25-201-66-329c-17-52-33-123-36-158c-8-83-16-89-101-75
		c-37,7-97,16-134,22c-36,6-92,22-123,35c-31,14-79,30-106,36c-34,8-56,20-75,42c-23,28-25,37-20,82c21,162,23,285,10,563
		c-12,249-19,314-44,435c-16,78-39,214-50,302c-22,169-101,595-150,805c-50,217-160,478-256,607c-32,44-84,119-114,167
		s-76,120-102,159c-26,40-48,78-48,85c0,35,292,261,429,331c177,91,384,151,511,148l75-2L12702,18825z M15622,18726
		c238-83,384-152,590-278c69-42,96-64,90-73c-4-7-35-34-69-59c-57-43-171-166-272-296c-24-30-82-120-129-200s-104-172-126-205
		s-75-125-117-205c-41-80-112-210-157-290c-65-118-93-182-147-339c-36-107-72-220-80-250c-17-68-45-372-45-497c0-167,55-580,104-784
		c24-102,52-225,61-275c9-49,23-118,31-152c20-89,19-170-3-182c-32-16-335,27-483,69c-36,10-99,24-140,30c-41,7-89,18-106,25
		c-29,12-33,18-43,82c-38,239-44,370-32,672c6,163,15,334,21,381c5,47,16,171,25,275c16,196,42,387,76,560c64,321,307,1141,384,1295
		c19,38,46,98,59,132c32,87,80,180,193,376c99,173,143,241,155,242C15466,18780,15538,18756,15622,18726z M10406,17067
		c3-3-9-44-26-91l-33-86h-253c-765,0-1154-115-1154-343c0-153,208-331,635-544c190-96,651-290,800-338c39-13,162-55,275-95
		c1629-570,4290-1136,6231-1325c765-74,1477-86,1864-29c460,67,628,250,439,475c-146,174-503,375-1069,600l-170,67l-3,74
		c-5,132-17,130,208,39c680-273,1152-513,1505-766c270-193,425-378,425-507c0-106-126-212-345-291c-157-56-558-128-793-143
		c-53-3-110-8-127-11c-69-11-917-15-1090-4c-99,7-286,18-415,26c-343,20-745,59-1107,105c-387,50-474,62-558,75c-49,8-178,28-285,45
		c-862,134-1925,359-2820,597c-872,231-1771,523-2285,742c-66,28-124,51-129,51c-17,0-277,111-476,203c-724,334-1221,684-1325,932
		c-83,200,116,352,589,450c259,54,604,89,956,98C10037,17078,10400,17074,10406,17067z M10296,16733c-53-173-84-300-115-473
		c-11-63-26-166-33-227c-6-62-16-113-22-113c-5,0-84,32-175,71c-436,188-724,365-803,494c-10,16-18,47-18,67c0,33,6,42,42,68
		c115,83,406,127,866,129C10285,16750,10301,16749,10296,16733z M18304,15054c363-161,575-286,693-406c114-116,101-183-45-238
		c-170-64-432-91-881-91c-178,0-326,2-328,5c-2,2,14,64,37,137c50,166,104,414,125,579c9,69,18,135,21,146c4,21,6,21,105-17
		C18087,15147,18209,15095,18304,15054z M12627,14446c29-10,60-27,68-39s23-22,33-22c14,0,17-10,16-65c-1-118-66-269-204-475
		c-37-55-93-149-125-210c-63-119-143-257-298-515c-54-91-132-232-172-315c-109-223-249-521-280-595c-14-36-44-103-65-150
		c-38-84-61-193-91-430c-5-41-14-100-19-131c-13-70-13-485,0-604c5-49,18-189,30-310c26-279,45-439,75-640c13-88,26-182,30-210
		c3-27,37-196,76-375c38-179,71-334,74-345c2-11,34-173,70-360c110-565,343-1595,439-1937c14-49,23-88,21-88c-7,0-43,74-65,132
		c-10,29-56,175-100,323c-45,149-189,592-320,985c-302,901-337,1016-474,1566c-31,122-103,396-161,610c-142,517-151,566-190,949
		c-22,218-23,692-1,865c26,200,40,255,95,349c65,113,240,445,314,596c33,66,78,152,102,190c67,110,300,515,328,570
		c14,28,97,148,184,267c152,208,250,353,265,390c4,10,3,20-3,23c-25,16,11,21,148,20C12540,14464,12587,14460,12627,14446z
		 M15208,13760c79-5,186-19,239-29c84-18,99-24,124-53c16-18,75-125,133-238c99-195,152-326,276-680c26-74,56-157,67-185
		c38-93,128-514,155-725c17-124,16-686-1-840c-44-411-59-488-166-880c-37-135-118-447-181-693c-167-655-155-616-433-1462
		c-275-837-263-802-342-1070c-38-132-79-267-90-300c-26-74-71-177-76-172c-2,2,30,136,71,298c116,455,286,1235,400,1834
		c35,187,92,468,125,624c34,157,66,323,71,370c6,47,20,140,30,206c24,147,43,312,70,600c27,295,22,479-19,765
		c-36,243-46,289-101,485c-22,77-60,228-85,335c-38,160-62,236-136,423c-50,126-109,268-131,315c-69,150-136,318-158,398
		c-11,42-41,123-65,180c-69,163-99,341-79,467l7,37h76C15031,13770,15129,13765,15208,13760z"/>
	<path d="M7969,19066c-158-44-286-173-330-334c-73-262,78-529,338-597c192-50,404,41,507,218c56,96,80,249,55,357
		c-38,168-177,312-343,356C8134,19083,8031,19083,7969,19066z"/>
	<path d="M19683,12855c-86-23-154-64-218-129c-194-198-194-506,0-702c189-192,481-192,670,0c151,153,188,375,94,571
		C20132,12800,19896,12912,19683,12855z"/>
</g>
</svg>
